HIERARCHY
ROOT Hips
{
	OFFSET 0.00000 0.00000 0.00000
	CHANNELS 6 Xposition Yposition Zposition Zrotation Yrotation Xrotation 
	JOINT LHipJoint
	{
		OFFSET 0 0 0
		CHANNELS 3 Zrotation Yrotation Xrotation
		JOINT LeftUpLeg
		{
			OFFSET 1.54859 -1.61379 0.86856
			CHANNELS 3 Zrotation Yrotation Xrotation
			JOINT LeftLeg
			{
				OFFSET 2.25087 -6.18423 0.00000
				CHANNELS 3 Zrotation Yrotation Xrotation
				JOINT LeftFoot
				{
					OFFSET 2.40328 -6.60297 0.00000
					CHANNELS 3 Zrotation Yrotation Xrotation
					JOINT LeftToeBase
					{
						OFFSET 0.17435 -0.47901 2.02453
						CHANNELS 3 Zrotation Yrotation Xrotation
						End Site
						{
							OFFSET 0.00000 -0.00000 1.04844
						}
					}
				}
			}
		}
	}
	JOINT RHipJoint
	{
		OFFSET 0 0 0
		CHANNELS 3 Zrotation Yrotation Xrotation
		JOINT RightUpLeg
		{
			OFFSET -1.54669 -1.61379 0.86856
			CHANNELS 3 Zrotation Yrotation Xrotation
			JOINT RightLeg
			{
				OFFSET -2.28132 -6.26789 0.00000
				CHANNELS 3 Zrotation Yrotation Xrotation
				JOINT RightFoot
				{
					OFFSET -2.51636 -6.91365 0.00000
					CHANNELS 3 Zrotation Yrotation Xrotation
					JOINT RightToeBase
					{
						OFFSET -0.15124 -0.41552 2.21090
						CHANNELS 3 Zrotation Yrotation Xrotation
						End Site
						{
							OFFSET -0.00000 -0.00000 1.13399
						}
					}
				}
			}
		}
	}
	JOINT LowerBack
	{
		OFFSET 0 0 0
		CHANNELS 3 Zrotation Yrotation Xrotation
		JOINT Spine
		{
			OFFSET -0.04287 2.26161 -0.25690
			CHANNELS 3 Zrotation Yrotation Xrotation
			JOINT Spine1
			{
				OFFSET 0.02248 2.28395 -0.10140
				CHANNELS 3 Zrotation Yrotation Xrotation
				JOINT Neck
				{
					OFFSET 0 0 0
					CHANNELS 3 Zrotation Yrotation Xrotation
					JOINT Neck1
					{
						OFFSET -0.11644 1.38496 0.11345
						CHANNELS 3 Zrotation Yrotation Xrotation
						JOINT Head
						{
							OFFSET 0.29383 1.36600 0.06642
							CHANNELS 3 Zrotation Yrotation Xrotation
							End Site
							{
								OFFSET 0.11075 1.41395 -0.00294
							}
						}
					}
				}
				JOINT LeftShoulder
				{
					OFFSET 0 0 0
					CHANNELS 3 Zrotation Yrotation Xrotation
					JOINT LeftArm
					{
						OFFSET 3.51628 0.59542 -0.30346
						CHANNELS 3 Zrotation Yrotation Xrotation
						JOINT LeftForeArm
						{
							OFFSET 4.76405 -0.00000 0.00000
							CHANNELS 3 Zrotation Yrotation Xrotation
							JOINT LeftHand
							{
								OFFSET 3.13759 -0.00000 -0.00000
								CHANNELS 3 Zrotation Yrotation Xrotation
								JOINT LeftFingerBase
								{
									OFFSET 0 0 0
									CHANNELS 3 Zrotation Yrotation Xrotation
									JOINT LeftHandIndex1
									{
										OFFSET 0.73226 -0.00000 -0.00000
										CHANNELS 3 Zrotation Yrotation Xrotation
										End Site
										{
											OFFSET 0.59037 -0.00000 -0.00000
										}
									}
								}
								JOINT LThumb
								{
									OFFSET 0 0 0
									CHANNELS 3 Zrotation Yrotation Xrotation
									End Site
									{
										OFFSET 0.59938 -0.00000 0.59938
									}
								}
							}
						}
					}
				}
				JOINT RightShoulder
				{
					OFFSET 0 0 0
					CHANNELS 3 Zrotation Yrotation Xrotation
					JOINT RightArm
					{
						OFFSET -3.30990 0.84213 -0.36430
						CHANNELS 3 Zrotation Yrotation Xrotation
						JOINT RightForeArm
						{
							OFFSET -5.10161 -0.00000 -0.00000
							CHANNELS 3 Zrotation Yrotation Xrotation
							JOINT RightHand
							{
								OFFSET -3.23267 -0.00000 -0.00000
								CHANNELS 3 Zrotation Yrotation Xrotation
								JOINT RightFingerBase
								{
									OFFSET 0 0 0
									CHANNELS 3 Zrotation Yrotation Xrotation
									JOINT RightHandIndex1
									{
										OFFSET -0.70200 -0.00000 -0.00000
										CHANNELS 3 Zrotation Yrotation Xrotation
										End Site
										{
											OFFSET -0.56597 -0.00000 -0.00000
										}
									}
								}
								JOINT RThumb
								{
									OFFSET 0 0 0
									CHANNELS 3 Zrotation Yrotation Xrotation
									End Site
									{
										OFFSET -0.57461 -0.00000 0.57461
									}
								}
							}
						}
					}
				}
			}
		}
	}
}
MOTION
Frames: 8
Frame Time: .0083333
-34.3064 13.2026 10.8295 0 0 0 0 0 0 -21 0 0 0 0 0 0 0 0 0 0 0 0 0 0 21 0 0 0 0 0 0 0 0 0 0 0 0 0 0 0 0 0 0 0 0 0 0 -16 0 0 21 0 0 11 0 0 0 -8 0 0 0 0 0 0 0 0 0 0 0 0 0 0 0 0 0 0 0 0 8 0 0 0 0 0 0 0 0 0 0 0 0 0 0 0 0 0
-34.3064 13.2026 10.8295 29.9950 70.6610 30.5375 0.0000 0.0000 0.0000 -14.4804 -6.2337 -55.0690 3.5888 11.5921 34.3038 1.7054 5.2356 23.5626 3.9552 -12.1006 -36.0888 0.0000 0.0000 0.0000 -30.2730 -10.8155 -8.5855 -5.9190 -14.3494 44.6557 -0.6915 12.8816 -16.2189 -6.0179 14.4456 -45.0534 -9.9357 8.0983 34.3968 -1.7916 8.7389 15.5880 0.5148 4.6083 -0.7615 -6.6997 -10.5335 -1.3771 27.1677 -9.8171 -21.7815 10.1407 -5.8984 -4.1157 -0.0000 -0.0000 0.0000 -97.4004 23.1126 62.3949 26.5099 -37.7078 -9.1978 -0.0000 0.0000 -23.3398 26.6025 30.7094 14.3464 -7.1250 0.0000 -0.0000 -6.0037 63.4793 -2.6961 -0.0000 -0.0000 0.0000 55.0211 32.9561 5.8209 -46.8877 51.6604 -23.7103 0.0000 0.0000 14.8927 -2.8345 25.6831 -1.2293 7.1250 -0.0000 -0.0000 16.2009 -5.1098 15.3333
-33.7663 13.1071 10.6017 24.5301 68.7505 24.9053 0.0000 0.0000 0.0000 -11.0440 -6.4851 -54.0331 4.6869 13.0223 39.4520 0.5503 -1.0346 14.4252 6.4582 -14.8581 -46.7939 0.0000 0.0000 0.0000 -30.7040 -8.3947 -6.5193 -5.0662 -13.4579 41.1078 -0.5704 11.9299 -14.7991 -6.5648 14.9541 -47.2083 -10.4398 8.1687 34.3958 -1.9748 8.5222 15.1933 0.6087 4.4551 -1.1883 -7.6039 -10.5053 -0.7138 28.7631 -9.6919 -21.5361 10.8951 -5.9143 -3.9802 0.0000 -0.0000 0.0000 -98.3586 23.3920 63.3992 25.9580 -37.1672 -8.8623 -0.0000 0.0000 -25.5129 24.0401 27.9678 11.8156 -7.1250 0.0000 -0.0000 -7.4908 59.9987 -2.7509 0.0000 -0.0000 0.0000 56.4128 30.3909 5.8345 -54.9147 54.7951 -30.1463 0.0000 0.0000 15.5080 4.7224 25.4095 2.0301 7.1250 -0.0000 -0.0000 20.5970 -5.7823 19.7716
-33.2619 13.0514 10.3787 18.8201 66.9637 19.7682 0.0000 0.0000 0.0000 -11.4039 -3.8857 -58.0090 6.5826 14.9701 47.2775 -0.3651 -10.9255 6.6924 9.7103 -17.2437 -58.5156 0.0000 0.0000 0.0000 -30.1543 -6.0539 -4.8666 -4.1620 -12.3729 37.0642 -0.2886 10.9529 -11.4850 -6.4173 14.8209 -46.6342 -9.8507 7.7105 33.3221 -2.6645 8.1932 15.2674 -0.1613 4.3108 -0.5903 -7.4017 -10.7892 -0.7560 30.3539 -9.8452 -21.6397 11.4330 -6.1114 -3.8512 -0.0000 -0.0000 0.0000 -97.6730 22.7501 65.9350 25.8978 -37.1076 -8.8259 -0.0000 0.0000 -26.8682 21.0693 24.9830 9.2417 -7.1250 0.0000 -0.0000 -9.2970 56.2721 -2.5857 -0.0000 -0.0000 0.0000 58.1418 28.3262 6.3188 -63.1342 57.0889 -36.9609 0.0000 0.0000 7.6349 9.3338 23.3753 3.7310 7.1250 -0.0000 -0.0000 23.3652 -7.7593 21.9605
-32.7774 13.0970 10.1277 8.7860 65.2051 10.6675 0.0000 0.0000 0.0000 -9.8914 1.7640 -63.1955 8.4160 16.4169 54.0477 0.0764 -6.8603 11.4389 5.3966 -13.8169 -42.5090 0.0000 0.0000 0.0000 -26.4093 -3.2415 -3.7125 -3.3737 -11.2767 33.2188 -0.2340 6.3579 -9.0648 -6.8403 15.1960 -48.2679 -8.3405 7.2518 33.2129 -2.1673 7.8318 14.4787 -0.3362 4.1201 -1.3939 -8.1797 -10.9446 -0.5172 31.3473 -10.2118 -21.0068 11.8737 -6.3071 -3.4807 -0.0000 0.0000 0.0000 -98.5058 23.4751 67.3844 25.7447 -36.9555 -8.7337 -0.0000 0.0000 -27.1738 19.5804 21.6859 7.4879 -7.1250 0.0000 -0.0000 -9.4814 52.6167 -1.7903 -0.0000 0.0000 0.0000 58.8600 25.5400 7.8775 -71.5422 58.6727 -44.0863 0.0000 -0.0000 -2.7730 15.7424 20.1615 5.5493 7.1250 -0.0000 -0.0000 27.3033 -10.5634 24.9391
-32.3091 13.1554 9.8953 5.3719 62.6804 7.7622 0.0000 0.0000 0.0000 -11.4596 6.6702 -67.0672 10.1846 17.5123 60.1035 0.2101 -2.2764 9.8062 1.0153 -6.4108 -17.9811 0.0000 0.0000 0.0000 -25.4078 -1.6491 -3.5353 -2.7463 -10.2726 29.8641 -0.1686 0.9710 -7.4720 -7.5334 15.7651 -50.8639 -8.9254 7.0551 32.5366 -2.2603 7.4092 14.4383 0.0546 3.8471 -1.2095 -8.2739 -11.2658 -1.4644 31.8441 -10.7559 -20.6361 11.9227 -6.5289 -3.0276 -0.0000 0.0000 0.0000 -98.7617 22.4625 70.1432 24.5306 -35.7203 -8.0142 -0.0000 0.0000 -27.9766 20.7631 14.0274 5.2504 -7.1250 0.0000 -0.0000 -6.2107 44.8487 0.0233 -0.0000 0.0000 0.0000 59.0353 23.9046 8.3449 -79.1426 59.5498 -50.6114 0.0000 -0.0000 -13.1847 21.1398 16.0423 6.0991 7.1250 -0.0000 -0.0000 30.8800 -13.9001 26.8965
-31.8477 13.1584 9.6913 4.9626 60.1050 7.3425 0.0000 0.0000 0.0000 -14.6075 10.9502 -68.6238 11.5460 18.1921 64.5423 -0.0316 -4.1980 4.4816 0.9271 -6.1339 -17.1735 0.0000 0.0000 0.0000 -25.9262 -1.4790 -4.1967 -2.3399 -9.5408 27.5020 -0.0316 -3.4933 -6.2760 -7.7206 15.9099 -51.5500 -11.3194 6.8557 31.9408 -2.0389 6.4898 14.3806 1.8152 3.2342 -1.1444 -9.5996 -11.1598 -1.0282 32.2369 -10.6702 -21.0076 12.3777 -6.5031 -3.0810 -0.0000 0.0000 0.0000 -100.2244 22.3136 70.7293 24.3270 -35.5081 -7.8957 -0.0000 0.0000 -26.6343 21.7852 1.9622 0.7840 -7.1250 0.0000 -0.0000 -3.8617 32.0774 1.2238 -0.0000 0.0000 0.0000 57.8608 22.9788 9.4269 -84.6479 59.8915 -55.3666 0.0000 -0.0000 -22.0704 25.9096 11.6028 5.5803 7.1250 -0.0000 -0.0000 34.2556 -17.2765 28.1633
-31.3854 13.1900 9.4645 0.8745 57.8677 3.2691 0.0000 0.0000 0.0000 -13.2397 12.4018 -68.1005 12.5093 18.5977 67.5942 -0.0361 -3.5410 0.1290 0.5113 -4.5835 -12.7244 0.0000 0.0000 0.0000 -23.8432 -2.0560 -5.3954 -2.1960 -9.2629 26.6212 0.1395 -7.1922 -5.6578 -7.0812 15.3999 -49.1806 -9.2908 6.2564 32.2995 -3.1196 6.2676 14.7791 -0.2449 3.2536 -0.6127 -6.3595 -12.2092 -2.1269 32.5717 -11.6673 -22.2515 11.8541 -7.2528 -3.2888 0.0000 -0.0000 0.0000 -96.4163 20.6685 74.8297 23.7870 -34.9382 -7.5842 -0.0000 0.0000 -25.8331 17.4658 2.9934 0.9413 -7.1250 0.0000 -0.0000 -7.4236 33.0530 2.1890 0.0000 -0.0000 0.0000 59.5882 22.2330 8.0538 -86.5025 59.9537 -56.9715 0.0000 -0.0000 -25.5172 26.2582 10.6984 5.2326 7.1250 -0.0000 -0.0000 34.6481 -18.0341 27.9095
